<?xml version="1.0" encoding="utf-8"?>
<!-- Generator: Adobe Illustrator 17.1.0, SVG Export Plug-In . SVG Version: 6.00 Build 0)  -->
<!DOCTYPE svg PUBLIC "-//W3C//DTD SVG 1.1//EN" "http://www.w3.org/Graphics/SVG/1.1/DTD/svg11.dtd">
<svg version="1.1" id="Layer_1" xmlns="http://www.w3.org/2000/svg" xmlns:xlink="http://www.w3.org/1999/xlink" x="0px" y="0px"
	 viewBox="0 0 128 128" enable-background="new 0 0 128 128" xml:space="preserve">
<circle fill="#323232" cx="63.8" cy="64.3" r="22.8"/>
<path fill="#323232" d="M63.6,37.1L63.6,37.1h55.1C108.7,16.9,87.8,3,63.8,3c-19.5,0-36.8,9.1-48.1,23.3l21,35.9
	C37.7,48.2,49.4,37.2,63.6,37.1z M63.8,91.4C52,91.4,42,84,38.2,73.5L12.9,30.1C6.3,39.9,2.5,51.6,2.5,64.3
	c0,30.8,22.8,56.3,52.4,60.6l21.1-36.4C72.4,90.3,68.2,91.4,63.8,91.4z M120.6,41.5H78.5c7.4,4.8,12.4,13.2,12.4,22.8
	c0,4.7-1.2,9.1-3.3,13h0l-28,48.2c1.3,0.1,2.7,0.1,4.1,0.1c33.8,0,61.3-27.4,61.3-61.3C125,56.2,123.4,48.5,120.6,41.5z"/>
</svg>
